<svg width="50" height="50" viewBox="0 0 26 26" xmlns="http://www.w3.org/2000/svg" fill="none"><circle fill="#4CAF50" cx="22" cy="4" r="4"/><g fill="#fff"><path d="M21 1h2v6h-2z"/><path d="M19 3h6v2h-6z"/></g><path fill="#000" d="m8.5 10.5-.6-.8a1 1 0 0 0 .153 1.694zm4 2 .99.141a1 1 0 0 0-.543-1.035zm-1.49 3.359a1 1 0 1 0 1.98.282zM12.5 7.5l.707-.707A1 1 0 0 0 11.9 6.7zM15 10l-.707.707A1 1 0 0 0 15 11zm2 1a1 1 0 1 0 0-2zm-9 5a2 2 0 0 1-2 2v2a4 4 0 0 0 4-4zm-2 2a2 2 0 0 1-2-2H2a4 4 0 0 0 4 4zm-2-2a2 2 0 0 1 2-2v-2a4 4 0 0 0-4 4zm2-2a2 2 0 0 1 2 2h2a4 4 0 0 0-4-4zm2.053-2.606 4 2 .894-1.788-4-2zm3.457.965-.5 3.5 1.98.282.5-3.5zM9.1 11.3l4-3-1.2-1.6-4 3zm2.693-3.093 2.5 2.5 1.414-1.414-2.5-2.5zM15 11h2V9h-2zm5 5a2 2 0 0 1-2 2v2a4 4 0 0 0 4-4zm-2 2a2 2 0 0 1-2-2h-2a4 4 0 0 0 4 4zm-2-2a2 2 0 0 1 2-2v-2a4 4 0 0 0-4 4zm2-2a2 2 0 0 1 2 2h2a4 4 0 0 0-4-4zm-3-9v2a2 2 0 0 0 2-2zm0 0h-2a2 2 0 0 0 2 2zm0 0V3a2 2 0 0 0-2 2zm0 0h2a2 2 0 0 0-2-2z"/></svg>