<svg width="50" height="50" viewBox="0 0 26 26" xmlns="http://www.w3.org/2000/svg" fill="none"><path fill="#888" d="m17.1 10.3-.36-.48a.6.6 0 0 0 .092 1.016zm2.4 1.2.594.085a.6.6 0 0 0-.326-.621zm-.894 2.015a.6.6 0 1 0 1.188.17zM19.5 8.5l.424-.424a.6.6 0 0 0-.784-.056zM21 10l-.424.424A.6.6 0 0 0 21 10.6zm1.2.6a.6.6 0 1 0 0-1.2zm-5.4 3a1.2 1.2 0 0 1-1.2 1.2V16a2.4 2.4 0 0 0 2.4-2.4zm-1.2 1.2a1.2 1.2 0 0 1-1.2-1.2h-1.2a2.4 2.4 0 0 0 2.4 2.4zm-1.2-1.2a1.2 1.2 0 0 1 1.2-1.2v-1.2a2.4 2.4 0 0 0-2.4 2.4zm1.2-1.2a1.2 1.2 0 0 1 1.2 1.2H18a2.4 2.4 0 0 0-2.4-2.4zm1.232-1.564 2.4 1.2.536-1.072-2.4-1.2zm2.074.58-.3 2.1 1.188.169.3-2.1zm-1.446-.636 2.4-1.8-.72-.96-2.4 1.8zm1.616-1.856 1.5 1.5.848-.848-1.5-1.5zM21 10.6h1.2V9.4H21zm3 3a1.2 1.2 0 0 1-1.2 1.2V16a2.4 2.4 0 0 0 2.4-2.4zm-1.2 1.2a1.2 1.2 0 0 1-1.2-1.2h-1.2a2.4 2.4 0 0 0 2.4 2.4zm-1.2-1.2a1.2 1.2 0 0 1 1.2-1.2v-1.2a2.4 2.4 0 0 0-2.4 2.4zm1.2-1.2a1.2 1.2 0 0 1 1.2 1.2h1.2a2.4 2.4 0 0 0-2.4-2.4zM21 7v1.2A1.2 1.2 0 0 0 22.2 7zm0 0h-1.2A1.2 1.2 0 0 0 21 8.2zm0 0V5.8A1.2 1.2 0 0 0 19.8 7zm0 0h1.2A1.2 1.2 0 0 0 21 5.8zM3.4 10.2l-.24-.32a.4.4 0 0 0 .061.678zM5 11l.396.056a.4.4 0 0 0-.217-.414zm-.596 1.344a.4.4 0 1 0 .792.112zM5 9l.283-.283a.4.4 0 0 0-.523-.037zm1 1-.283.283A.4.4 0 0 0 6 10.4zm.8.4a.4.4 0 1 0 0-.8zm-3.6 2a.8.8 0 0 1-.8.8v.8A1.6 1.6 0 0 0 4 12.4zm-.8.8a.8.8 0 0 1-.8-.8H.8A1.6 1.6 0 0 0 2.4 14zm-.8-.8a.8.8 0 0 1 .8-.8v-.8a1.6 1.6 0 0 0-1.6 1.6zm.8-.8a.8.8 0 0 1 .8.8H4a1.6 1.6 0 0 0-1.6-1.6zm.821-1.042 1.6.8.358-.716-1.6-.8zm1.383.386-.2 1.4.792.112.2-1.4zm-.964-.424 1.6-1.2-.48-.64-1.6 1.2zm1.077-1.237 1 1 .566-.566-1-1zM6 10.4h.8v-.8H6zm2 2a.8.8 0 0 1-.8.8v.8a1.6 1.6 0 0 0 1.6-1.6zm-.8.8a.8.8 0 0 1-.8-.8h-.8A1.6 1.6 0 0 0 7.2 14zm-.8-.8a.8.8 0 0 1 .8-.8v-.8a1.6 1.6 0 0 0-1.6 1.6zm.8-.8a.8.8 0 0 1 .8.8h.8a1.6 1.6 0 0 0-1.6-1.6zM6 8v.8a.8.8 0 0 0 .8-.8zm0 0h-.8a.8.8 0 0 0 .8.8zm0 0v-.8a.8.8 0 0 0-.8.8zm0 0h.8a.8.8 0 0 0-.8-.8z"/><path fill="#000" d="m8.5 10.5-.6-.8a1 1 0 0 0 .153 1.694zm4 2 .99.141a1 1 0 0 0-.543-1.035zm-1.49 3.359a1 1 0 1 0 1.98.282zM12.5 7.5l.707-.707A1 1 0 0 0 11.9 6.7zM15 10l-.707.707A1 1 0 0 0 15 11zm2 1a1 1 0 1 0 0-2zm-9 5a2 2 0 0 1-2 2v2a4 4 0 0 0 4-4zm-2 2a2 2 0 0 1-2-2H2a4 4 0 0 0 4 4zm-2-2a2 2 0 0 1 2-2v-2a4 4 0 0 0-4 4zm2-2a2 2 0 0 1 2 2h2a4 4 0 0 0-4-4zm2.053-2.606 4 2 .894-1.788-4-2zm3.457.965-.5 3.5 1.98.282.5-3.5zM9.1 11.3l4-3-1.2-1.6-4 3zm2.693-3.093 2.5 2.5 1.414-1.414-2.5-2.5zM15 11h2V9h-2zm5 5a2 2 0 0 1-2 2v2a4 4 0 0 0 4-4zm-2 2a2 2 0 0 1-2-2h-2a4 4 0 0 0 4 4zm-2-2a2 2 0 0 1 2-2v-2a4 4 0 0 0-4 4zm2-2a2 2 0 0 1 2 2h2a4 4 0 0 0-4-4zm-3-9v2a2 2 0 0 0 2-2zm0 0h-2a2 2 0 0 0 2 2zm0 0V3a2 2 0 0 0-2 2zm0 0h2a2 2 0 0 0-2-2z"/></svg>