<svg width="50px" height="50px" viewBox="0 0 26 26" xmlns="http://www.w3.org/2000/svg" fill="black">
  <path fill="#000000" d="m8.5 10.5-.6-.8a1 1 0 0 0 .153 1.694L8.5 10.5Zm4 2 .99.141a1 1 0 0 0-.543-1.035l-.447.894Zm-1.49 3.359a1 1 0 1 0 1.98.282l-1.98-.282ZM12.5 7.5l.707-.707A1 1 0 0 0 11.9 6.7l.6.8ZM15 10l-.707.707A1 1 0 0 0 15 11v-1Zm2 1a1 1 0 1 0 0-2v2Zm-9 5a2 2 0 0 1-2 2v2a4 4 0 0 0 4-4H8Zm-2 2a2 2 0 0 1-2-2H2a4 4 0 0 0 4 4v-2Zm-2-2a2 2 0 0 1 2-2v-2a4 4 0 0 0-4 4h2Zm2-2a2 2 0 0 1 2 2h2a4 4 0 0 0-4-4v2Zm2.053-2.606 4 2 .894-1.788-4-2-.894 1.788Zm3.457.965-.5 3.5 1.98.282.5-3.5-1.98-.282ZM9.1 11.3l4-3-1.2-1.6-4 3 1.2 1.6Zm2.693-3.093 2.5 2.5 1.414-1.414-2.5-2.5-1.414 1.414ZM15 11h2V9h-2v2Zm5 5a2 2 0 0 1-2 2v2a4 4 0 0 0 4-4h-2Zm-2 2a2 2 0 0 1-2-2h-2a4 4 0 0 0 4 4v-2Zm-2-2a2 2 0 0 1 2-2v-2a4 4 0 0 0-4 4h2Zm2-2a2 2 0 0 1 2 2h2a4 4 0 0 0-4-4v2Zm-3-9v2a2 2 0 0 0 2-2h-2Zm0 0h-2a2 2 0 0 0 2 2V5Zm0 0V3a2 2 0 0 0-2 2h2Zm0 0h2a2 2 0 0 0-2-2v2Z"/>
  <g transform="translate(17.5, 0) scale(0.25)">
    <path class="clr-i-outline clr-i-outline-path-1" d="M32.25,6H29V8h3V30H4V8H7V6H3.75A1.78,1.78,0,0,0,2,7.81V30.19A1.78,1.78,0,0,0,3.75,32h28.5A1.78,1.78,0,0,0,34,30.19V7.81A1.78,1.78,0,0,0,32.25,6Z"/>
    <rect class="clr-i-outline clr-i-outline-path-2" x="8" y="14" width="2" height="2"/>
    <rect class="clr-i-outline clr-i-outline-path-3" x="14" y="14" width="2" height="2"/>
    <rect class="clr-i-outline clr-i-outline-path-4" x="20" y="14" width="2" height="2"/>
    <rect class="clr-i-outline clr-i-outline-path-5" x="26" y="14" width="2" height="2"/>
    <rect class="clr-i-outline clr-i-outline-path-6" x="8" y="19" width="2" height="2"/>
    <rect class="clr-i-outline clr-i-outline-path-7" x="14" y="19" width="2" height="2"/>
    <rect class="clr-i-outline clr-i-outline-path-8" x="20" y="19" width="2" height="2"/>
    <rect class="clr-i-outline clr-i-outline-path-9" x="26" y="19" width="2" height="2"/>
    <rect class="clr-i-outline clr-i-outline-path-10" x="8" y="24" width="2" height="2"/>
    <rect class="clr-i-outline clr-i-outline-path-11" x="14" y="24" width="2" height="2"/>
    <rect class="clr-i-outline clr-i-outline-path-12" x="20" y="24" width="2" height="2"/>
    <rect class="clr-i-outline clr-i-outline-path-13" x="26" y="24" width="2" height="2"/>
    <path class="clr-i-outline clr-i-outline-path-14" d="M10,10a1,1,0,0,0,1-1V3A1,1,0,0,0,9,3V9A1,1,0,0,0,10,10Z"/>
    <path class="clr-i-outline clr-i-outline-path-15" d="M26,10a1,1,0,0,0,1-1V3a1,1,0,0,0-2,0V9A1,1,0,0,0,26,10Z"/>
    <rect class="clr-i-outline clr-i-outline-path-16" x="13" y="6" width="10" height="2"/>
    <rect x="0" y="0" width="36" height="36" fill-opacity="0"/>
  </g>
</svg>
